<?xml version="1.0" standalone="no"?>
<!DOCTYPE svg PUBLIC "-//W3C//DTD SVG 20010904//EN"
 "http://www.w3.org/TR/2001/REC-SVG-20010904/DTD/svg10.dtd">
<svg version="1.0" xmlns="http://www.w3.org/2000/svg"
 width="516.000000pt" height="516.000000pt" viewBox="0 0 516.000000 516.000000"
 preserveAspectRatio="xMidYMid meet">
<metadata>
Created by potrace 1.11, written by Peter Selinger 2001-2013
</metadata>
<g transform="translate(0.000000,516.000000) scale(0.100000,-0.100000)"
fill="#000000" stroke="none">
<path d="M3364 4456 c-10 -7 -201 -105 -424 -219 -223 -113 -430 -218 -460
-234 -30 -15 -58 -32 -61 -36 -3 -5 -9 -8 -13 -7 -4 1 -221 -108 -484 -241
-262 -133 -494 -251 -514 -261 -20 -10 -39 -22 -43 -27 -3 -6 20 -59 51 -120
l57 -109 91 47 c128 67 537 276 789 402 117 59 219 113 227 120 8 8 16 13 17
11 3 -2 434 212 556 277 40 21 133 69 207 106 74 38 136 70 138 71 2 1 -23 54
-55 118 -55 108 -61 115 -79 102z"/>
<path d="M2978 3545 c-2 -2 -16 -5 -31 -7 -16 -3 -33 -11 -38 -19 -5 -8 -9 -9
-9 -4 0 6 -4 4 -9 -4 -10 -15 6 -61 20 -61 5 0 6 -6 3 -14 -8 -20 14 -31 66
-32 25 -1 46 -3 48 -4 1 -1 5 -4 10 -5 39 -13 72 -32 72 -43 0 -7 4 -11 8 -8
4 3 16 -11 26 -29 11 -20 23 -32 30 -27 24 15 96 19 140 8 18 -4 25 -3 21 4
-3 5 -2 10 4 10 11 0 9 18 -4 41 -14 22 -62 52 -74 45 -5 -4 -12 -2 -16 3 -6
10 -39 8 -112 -7 -46 -10 -68 3 -71 43 -1 11 -4 29 -6 40 -2 11 -5 25 -5 31
-1 10 -66 46 -73 39z"/>
<path d="M2305 3509 c-42 -20 -87 -67 -79 -81 3 -4 0 -8 -6 -8 -7 0 -10 -7 -6
-15 3 -8 1 -15 -5 -15 -6 0 -8 -26 -4 -72 6 -66 6 -84 3 -125 -1 -7 -3 -11 -5
-9 -3 2 -18 0 -34 -4 -19 -6 -29 -5 -29 2 0 5 -6 8 -14 5 -7 -3 -18 -1 -24 5
-16 16 -94 17 -122 3 -34 -18 -59 -49 -61 -77 -4 -42 1 -79 9 -74 5 3 9 -1 9
-9 0 -11 -14 -15 -56 -15 -31 0 -132 -2 -226 -3 l-170 -2 0 -125 0 -125 1140
0 1140 0 0 127 0 127 -175 -1 -175 0 -1 28 c-3 53 -14 79 -45 108 -31 29 -112
60 -124 48 -3 -4 -12 -7 -18 -7 -25 -2 -67 -18 -67 -25 0 -5 -13 -5 -29 0 -16
4 -32 5 -36 2 -4 -4 -6 -2 -5 3 5 21 0 36 -10 30 -6 -4 -10 -3 -9 2 4 22 -3
36 -31 63 -17 17 -34 31 -38 31 -28 5 -72 4 -96 -2 -18 -5 -37 -4 -50 3 -11 7
-23 12 -26 11 -3 -1 -6 6 -7 15 -6 77 -38 127 -90 141 -30 9 -45 6 -94 -14
-49 -21 -62 -23 -84 -13 -14 6 -25 15 -25 20 0 8 -66 51 -82 54 -5 1 -9 3 -10
4 -12 12 -100 5 -133 -11z"/>
<path d="M1600 2660 l-115 -5 0 -470 c1 -417 3 -474 18 -501 22 -43 70 -86
109 -101 46 -16 1955 -18 2013 -2 56 16 92 44 117 92 21 41 22 50 23 511 0
309 -3 470 -10 472 -16 6 -2026 10 -2155 4z"/>
<path d="M362 1401 c-35 -14 -83 -51 -67 -51 4 0 -1 -7 -9 -16 -10 -10 -16
-33 -16 -64 0 -42 5 -54 33 -82 18 -19 53 -40 78 -47 51 -15 101 -40 111 -55
16 -23 8 -67 -17 -90 -32 -29 -85 -29 -144 2 l-43 23 -18 -21 c-10 -12 -16
-28 -14 -35 5 -13 60 -44 94 -53 36 -10 108 -3 145 14 50 24 88 91 81 144 -3
19 -5 38 -6 42 -1 20 -52 57 -105 77 -91 35 -102 41 -114 67 -31 68 58 114
143 73 33 -16 40 -16 52 -4 16 15 19 59 4 50 -5 -3 -10 -2 -10 4 0 12 -64 34
-107 36 -17 1 -49 -6 -71 -14z"/>
<path d="M620 1410 c-7 -4 -3 -17 10 -32 11 -15 20 -29 20 -32 0 -3 26 -50 58
-103 82 -140 82 -139 84 -242 l3 -94 33 -1 c19 -1 36 3 39 8 3 4 5 48 5 97
l-1 90 65 110 c106 183 115 199 101 200 -37 4 -89 -10 -82 -21 3 -6 3 -10 -2
-10 -4 0 -13 -10 -19 -23 -36 -76 -97 -187 -102 -187 -4 0 -25 35 -47 78 -22
42 -42 79 -45 82 -3 3 -13 21 -24 42 -14 29 -25 37 -52 40 -19 2 -39 1 -44 -2z"/>
<path d="M1471 1410 c-7 -4 -11 -67 -12 -173 -1 -92 -4 -167 -9 -167 -4 0 -23
19 -41 42 -19 23 -40 47 -46 54 -7 7 -13 17 -13 23 0 5 -8 16 -18 23 -9 7 -25
25 -34 39 -9 14 -23 32 -30 40 -7 8 -31 38 -53 67 -32 43 -44 52 -70 52 l-31
0 0 -250 c0 -137 2 -250 5 -251 36 -5 61 -3 62 6 1 5 2 83 3 172 0 89 4 164 7
167 3 4 25 -17 47 -46 23 -29 84 -108 137 -174 66 -85 102 -123 120 -126 13
-3 27 -3 30 0 3 3 5 117 5 253 l0 247 -24 4 c-14 3 -29 2 -35 -2z"/>
<path d="M1610 1410 c-9 -5 -13 -25 -11 -52 1 -16 12 -18 76 -18 53 0 75 -4
76 -12 0 -7 1 -105 2 -217 l2 -204 34 -1 c18 -1 35 4 38 10 2 6 5 103 6 215
l2 204 75 5 c74 5 75 5 75 33 1 16 -3 31 -8 34 -11 7 -356 10 -367 3z"/>
<path d="M2083 1412 l-23 -3 0 -249 0 -248 30 -4 c48 -7 53 2 54 103 l1 94 30
3 c17 1 35 -1 41 -5 12 -9 105 -149 115 -173 7 -17 43 -27 80 -22 l27 4 -56
81 c-30 45 -65 93 -76 106 -16 18 -18 25 -8 29 8 2 29 18 48 34 36 32 55 82
48 125 -3 14 -6 31 -7 37 -3 16 -49 61 -70 69 -37 14 -185 26 -234 19z m188
-77 c45 -14 52 -94 11 -134 -24 -24 -35 -28 -82 -27 l-54 1 0 80 c-1 62 2 81
14 86 17 7 79 4 111 -6z"/>
<path d="M2670 1410 c-13 -8 -50 -97 -43 -104 4 -3 1 -6 -5 -6 -7 0 -12 -5
-12 -12 0 -10 -34 -104 -60 -163 -48 -114 -80 -209 -70 -215 14 -9 70 0 71 11
2 13 5 21 17 54 24 61 21 60 137 60 119 0 112 4 140 -77 14 -37 22 -47 44 -50
51 -7 55 -1 31 57 -9 23 -19 52 -21 63 0 4 -7 18 -14 32 -20 39 -55 131 -55
146 0 8 -5 14 -11 14 -5 0 -8 4 -5 8 2 4 -2 23 -11 42 -16 38 -25 58 -43 106
-9 26 -18 33 -46 36 -19 2 -38 1 -44 -2z m70 -188 c0 -7 6 -25 14 -40 8 -15
16 -38 17 -52 4 -24 2 -24 -68 -26 -40 -1 -73 3 -73 8 0 5 13 43 29 86 16 42
32 86 36 97 6 17 10 15 26 -20 10 -22 19 -46 19 -53z"/>
<path d="M3029 1412 c-12 -2 -15 -43 -15 -251 -1 -245 0 -249 20 -253 12 -2
30 -2 41 1 18 5 20 15 20 91 l0 85 75 6 c96 9 122 19 157 65 23 30 28 48 29
93 1 93 -42 141 -140 158 -34 5 -166 9 -187 5z m220 -96 c17 -18 23 -34 23
-66 -1 -75 -46 -101 -159 -91 -9 1 -13 26 -13 90 0 63 4 91 13 94 33 11 113
-5 136 -27z"/>
<path d="M3611 1408 c-152 -26 -238 -205 -171 -356 40 -90 114 -140 214 -146
122 -7 217 60 254 179 10 35 8 148 -4 167 -5 7 -9 19 -10 26 -2 8 -11 23 -21
33 -10 11 -27 29 -38 40 -18 19 -80 55 -97 58 -5 1 -9 1 -10 2 -12 5 -81 3
-117 -3z m135 -86 c74 -34 104 -168 58 -259 -30 -60 -69 -82 -145 -80 -90 3
-144 58 -151 154 -6 88 25 157 84 187 39 19 110 18 154 -2z"/>
<path d="M4033 1412 l-33 -3 0 -250 c0 -230 1 -249 18 -250 22 -1 232 -1 253
0 11 1 16 11 16 35 l0 35 -94 0 c-52 0 -98 3 -102 6 -5 2 -8 97 -8 210 0 113
-4 209 -9 213 -5 4 -24 6 -41 4z"/>
<path d="M4404 1411 l-30 -6 0 -249 1 -249 33 -1 c19 -1 37 3 40 9 11 17 8
477 -3 489 -6 7 -23 10 -41 7z"/>
<path d="M4653 1403 c-91 -31 -120 -154 -53 -221 15 -16 47 -34 71 -41 56 -16
106 -39 114 -51 14 -22 7 -72 -12 -91 -34 -34 -144 -27 -168 11 -9 14 -21 12
-39 -6 -30 -29 -19 -50 39 -76 93 -42 187 -24 239 45 16 21 21 43 21 87 0 76
-19 97 -129 138 -87 34 -111 57 -96 97 19 50 85 66 146 34 28 -14 41 -16 51
-8 7 6 10 15 7 20 -3 5 0 9 5 9 24 0 9 21 -29 40 -51 26 -113 31 -167 13z"/>
</g>
</svg>
